<!DOCTYPE svg PUBLIC "-//W3C//DTD SVG 1.1//EN" "http://www.w3.org/Graphics/SVG/1.1/DTD/svg11.dtd">
<!-- Uploaded to: SVG Repo, www.svgrepo.com, Transformed by: SVG Repo Mixer Tools -->
<svg height="256px" width="256px" version="1.1" id="Layer_1" xmlns="http://www.w3.org/2000/svg" xmlns:xlink="http://www.w3.org/1999/xlink" viewBox="-51.2 -51.2 614.40 614.40" xml:space="preserve" fill="#000000" data-darkreader-inline-fill="" style="--darkreader-inline-fill: #922727; --darkreader-inline-stroke: #d35b5b;" stroke="#000000" data-darkreader-inline-stroke="" stroke-width="3.5840070000000006">
<g id="SVGRepo_bgCarrier" stroke-width="0" transform="translate(0,0), scale(1)">
<path transform="translate(-51.2, -51.2), scale(38.4)" fill="#000000" d="M9.166.33a2.25 2.25 0 00-2.332 0l-5.25 3.182A2.25 2.25 0 00.5 5.436v5.128a2.25 2.25 0 001.084 1.924l5.25 3.182a2.25 2.25 0 002.332 0l5.25-3.182a2.25 2.25 0 001.084-1.924V5.436a2.25 2.25 0 00-1.084-1.924L9.166.33z" strokewidth="0"/>
</g>
<g id="SVGRepo_tracerCarrier" stroke-linecap="round" stroke-linejoin="round" stroke="#ccc7c7" stroke-width="35.84007"> <path style="fill: rgb(209, 211, 212); --darkreader-inline-fill: #ccc7c1;" d="M345.589,236.508h-89.589h-89.59c-10.763,0-19.488,8.726-19.488,19.488s8.726,19.488,19.488,19.488 h89.59h89.589c10.763,0,19.488-8.726,19.488-19.488S356.352,236.508,345.589,236.508z" data-darkreader-inline-fill=""/> <path style="fill: rgb(191, 193, 194); --darkreader-inline-fill: #c1bbb3;" d="M345.589,236.508h-89.589v38.977h89.589c10.763,0,19.488-8.726,19.488-19.488 S356.352,236.508,345.589,236.508z" data-darkreader-inline-fill=""/> <path style="fill: rgb(209, 211, 212); --darkreader-inline-fill: #ccc7c1;" d="M82.567,348.538H12.992C5.817,348.538,0,342.721,0,335.545v-159.09 c0-7.176,5.817-12.992,12.992-12.992h69.575V348.538z" data-darkreader-inline-fill=""/> <g> <path style="fill: rgb(191, 193, 194); --darkreader-inline-fill: #c1bbb3;" d="M429.434,163.464h69.575c7.176,0,12.992,5.817,12.992,12.992v159.09 c0,7.176-5.817,12.992-12.992,12.992h-69.575V163.464z" data-darkreader-inline-fill=""/> <path style="fill: rgb(191, 193, 194); --darkreader-inline-fill: #c1bbb3;" d="M153.419,382.424H82.567c-7.176,0-12.992-5.817-12.992-12.992V142.569 c0-7.176,5.817-12.992,12.992-12.992h70.852c7.176,0,12.992,5.817,12.992,12.992v226.863 C166.411,376.608,160.594,382.424,153.419,382.424z" data-darkreader-inline-fill=""/> </g> <path style="fill: rgb(167, 169, 172); --darkreader-inline-fill: #b2aba1;" d="M358.582,129.577h70.852c7.176,0,12.992,5.817,12.992,12.992v226.863 c0,7.176-5.817,12.992-12.992,12.992h-70.852c-7.176,0-12.992-5.817-12.992-12.992V142.569 C345.589,135.394,351.406,129.577,358.582,129.577z" data-darkreader-inline-fill=""/> </g>
<g id="SVGRepo_iconCarrier"> <path style="fill: rgb(209, 211, 212); --darkreader-inline-fill: #ccc7c1;" d="M345.589,236.508h-89.589h-89.59c-10.763,0-19.488,8.726-19.488,19.488s8.726,19.488,19.488,19.488 h89.59h89.589c10.763,0,19.488-8.726,19.488-19.488S356.352,236.508,345.589,236.508z" data-darkreader-inline-fill=""/> <path style="fill: rgb(191, 193, 194); --darkreader-inline-fill: #c1bbb3;" d="M345.589,236.508h-89.589v38.977h89.589c10.763,0,19.488-8.726,19.488-19.488 S356.352,236.508,345.589,236.508z" data-darkreader-inline-fill=""/> <path style="fill: rgb(209, 211, 212); --darkreader-inline-fill: #ccc7c1;" d="M82.567,348.538H12.992C5.817,348.538,0,342.721,0,335.545v-159.09 c0-7.176,5.817-12.992,12.992-12.992h69.575V348.538z" data-darkreader-inline-fill=""/> <g> <path style="fill: rgb(191, 193, 194); --darkreader-inline-fill: #c1bbb3;" d="M429.434,163.464h69.575c7.176,0,12.992,5.817,12.992,12.992v159.09 c0,7.176-5.817,12.992-12.992,12.992h-69.575V163.464z" data-darkreader-inline-fill=""/> <path style="fill: rgb(191, 193, 194); --darkreader-inline-fill: #c1bbb3;" d="M153.419,382.424H82.567c-7.176,0-12.992-5.817-12.992-12.992V142.569 c0-7.176,5.817-12.992,12.992-12.992h70.852c7.176,0,12.992,5.817,12.992,12.992v226.863 C166.411,376.608,160.594,382.424,153.419,382.424z" data-darkreader-inline-fill=""/> </g> <path style="fill: rgb(167, 169, 172); --darkreader-inline-fill: #b2aba1;" d="M358.582,129.577h70.852c7.176,0,12.992,5.817,12.992,12.992v226.863 c0,7.176-5.817,12.992-12.992,12.992h-70.852c-7.176,0-12.992-5.817-12.992-12.992V142.569 C345.589,135.394,351.406,129.577,358.582,129.577z" data-darkreader-inline-fill=""/> </g>
</svg>